<svg id="Layer_1" data-name="Layer 1" xmlns="http://www.w3.org/2000/svg" viewBox="0 0 1600 1600"><defs><style>.cls-1{fill:#c509bd;}</style></defs><title>inconin</title><path class="cls-1" d="M994.2,375.6H606.6c-127.8,0-231.7,104-231.7,231.7V994.8c0,127.8,104,231.8,231.7,231.8H994.1c127.8,0,231.7-104,231.7-231.7V607.3C1225.9,479.5,1121.9,375.6,994.2,375.6Zm-193.8,636c-116.1,0-210.6-94.5-210.6-210.6s94.41-210.6,210.6-210.6S1011,684.9,1011,801,916.5,1011.6,800.4,1011.6ZM1037,619.3a63,63,0,1,1,63-63A63.08,63.08,0,0,1,1037,619.3Z"/></svg>