<?xml version="1.0" encoding="utf-8"?>
<!-- Generator: Adobe Illustrator 23.0.1, SVG Export Plug-In . SVG Version: 6.00 Build 0)  -->
<svg version="1.1" id="Layer_1" xmlns="http://www.w3.org/2000/svg" xmlns:xlink="http://www.w3.org/1999/xlink" x="0px" y="0px"
	 viewBox="0 0 1600 1600" style="enable-background:new 0 0 1600 1600;" xml:space="preserve">
<path d="M941.9,167.4h-4.1c-5.2,0-5.8,3.2-5.8,6.5v2.6h-2.3c-0.5,0-0.8,0.3-0.8,0.8v4.6c0,0.5,0.3,0.8,0.8,0.8h2.3V194
	c0,0.5,0.3,0.8,0.8,0.8h4.7c0.5,0,0.8-0.3,0.6-0.8v-11.4h3.8c0.5,0,0.8-0.3,0.8-0.8v-4.6c0-0.5-0.3-0.8-0.8-0.8h-3.8v-2.3
	c0.2-0.9,0.2-0.8,1.1-0.8h2.7c0.2,0,0.5,0,0.6-0.2c0.2-0.2,0.3-0.3,0.2-0.6v-4.6C942.6,167.7,942.3,167.3,941.9,167.4z M941.1,171.8
	h-2c-2.4,0-2.6,1.2-2.6,2.6v2.9c0,0.2,0.2,0.5,0.3,0.6c0.2,0.2,0.3,0.3,0.6,0.3h3.6v2.9h-3.6c-0.5,0-0.8,0.3-0.8,0.8v11.4h-3v-11.4
	c0-0.5-0.3-0.8-0.8-0.8h-2.3v-2.9h2.3c0.2,0,0.5-0.2,0.6-0.3c0.2-0.2,0.2-0.3,0.2-0.6v-3.3c0-3.3,0.8-5,4.3-5h3.2V171.8L941.1,171.8
	z"/>
<path d="M1107.9,150H915c-245.4-2.6-276.8,149.4-276.8,313.9v119.5H530c-21.3-2.4-38.7,14.9-36.1,36.1v216.7
	c-2.6,21.3,14.9,38.6,36.1,36.1h108.4V1414c-2.3,21.3,15,38.6,36.3,36.1h220.8c21.3,2.4,38.6-14.9,31.7-36.1l0.2-541.8h180.5
	c21.3,2.4,38.7-14.9,36.1-36.1V619.4c2.6-21.3-14.9-38.6-36.1-36.1H927l0.2-108.4c7-46.2,7-38.7,49.8-36.1h129.2
	c10-2.3,20.8-1.1,28.2-8.4s11.8-17.3,9.3-27.8V185.9C1146.4,164.7,1129.1,147.4,1107.9,150z M1069.1,362.5l-90.6-3.5
	c-112.2,0-121.6,60.9-121.6,123.3l-0.3,137c0,10.3,4.1,20,11.2,27.3c7.3,7.3,17,11.2,27.3,11.2h176.4v139.5H895.4
	c-21.3,0-38.6,17.3-38.7,38.6v541.9H710.5V836.1c0-21.3-14.6-38.6-35.8-38.6H565.9V658h108.6c10.3,0,20-4.1,27.3-11.2
	c7.3-7.3,8.5-17.2,8.5-27.3V463.7c0-162,32.8-239.1,204.5-239.1H1069L1069.1,362.5L1069.1,362.5z"/>
</svg>
