<?xml version="1.0" encoding="utf-8"?>
<!-- Generator: Adobe Illustrator 23.0.1, SVG Export Plug-In . SVG Version: 6.00 Build 0)  -->
<svg version="1.1" id="Layer_1" xmlns="http://www.w3.org/2000/svg" xmlns:xlink="http://www.w3.org/1999/xlink" x="0px" y="0px"
	 viewBox="0 0 1600 1600" style="enable-background:new 0 0 1600 1600;" xml:space="preserve">
<path d="M1390.5,497.6c-3.7-15.1-9.4-28.4-17.6-40.8c-6.2-9.4-17.8-21.5-27.3-28.8c-7.6-5.8-26.2-15.5-34.9-18.2
	c-2.7-0.9-8.5-2.4-12.6-3.4l-8.1-1.9l-447.6-0.1c-259.3-0.1-450.1,0.2-453.6,0.6l0,0c-44.8,5.7-83.2,37.3-98,80.5
	c-0.4,1.3-0.8,2.4-1.2,3.4c-4.5,11.8-4.5,11.8-4.8,241.2l-0.1,64.6c-0.2,200.7,0,288.8,0.6,294.4c2.3,20.8,10.1,40.8,22.5,57.7
	c5.8,7.9,17.9,20,25.4,25.4c12.7,9.1,29.3,16.6,44.6,20.3c7.4,1.7,7.8,1.8,195.4,2.5c84.4,0.4,226.2,0.6,351.3,0.6
	c35.4,0,69.4,0,100.4-0.1l264-0.3l7.7-1.9c11.8-2.9,18-5.2,29.2-10.7c35.5-17.5,59.8-52.1,65-92.5c0.7-5.1,1-88.5,1-297.5
	C1391.6,545.8,1391.4,501.6,1390.5,497.6z M679.3,830.2l-299.7,299.7l-4.4-2c-10.2-4.9-17.2-14.4-20.4-27.5
	c-1.4-5.5-1.5-33.8-1.7-302.3c-0.2-156.6,0-272.6,0.3-293.2c12.8,12.5,76.6,76,162.6,162L679.3,830.2z M831.7,892.9
	c-3.4-2.4-84.1-82.5-216.1-214.2L405.9,469.3H1274l-209.3,209.4c-90.5,90.5-211.4,211.2-215.8,214.2
	C843.4,896,836.9,896.1,831.7,892.9z M723.3,873.7c4.7,4.5,25.8,25.6,52,52.1l0,0c44.6,45,54,53.8,56.5,54.8
	c4.7,1.9,12.3,1.9,16.8-0.1c2.3-0.9,11.5-9.4,55.2-53l50.3-50.3l128.6,128.6c64.6,64.6,115.9,116,127.2,127.5
	c-24.3,0.2-177.5,0.4-373.2,0.4c-195.7,0-348.9-0.2-373.2-0.4C488.6,1107.8,707,889.4,723.3,873.7z M1329.2,794.1l-0.4,295.1
	l-1.8,6.4c-4.9,17.2-12.8,26.7-27.3,32.8l-5.3,2.2L998.1,833.2l166.1-166.2c84.7-84.7,151.8-151.6,165.1-164.7
	C1329.4,524,1329.4,647.6,1329.2,794.1z"/>
</svg>
