<?xml version="1.0" encoding="utf-8"?>
<!-- Generator: Adobe Illustrator 23.0.1, SVG Export Plug-In . SVG Version: 6.00 Build 0)  -->
<svg version="1.1" id="Layer_1" xmlns="http://www.w3.org/2000/svg" xmlns:xlink="http://www.w3.org/1999/xlink" x="0px" y="0px"
	 viewBox="0 0 1600 1600" style="enable-background:new 0 0 1600 1600;" xml:space="preserve">
<g>
	<path d="M994.2,375.6H606.6c-127.8,0-231.7,104-231.7,231.7v387.5c0,127.8,104,231.8,231.7,231.8h387.5
		c127.8,0,231.7-104,231.7-231.7V607.3C1225.9,479.5,1121.9,375.6,994.2,375.6z M1170.4,607.3v387.5c0,97.2-79,176.2-176.2,176.2
		H606.6c-97.2,0-176.2-79-176.2-176.2V607.3c0-97.2,79-176.2,176.2-176.2h387.5C1091.3,431.1,1170.4,510.2,1170.4,607.3z"/>
	<path d="M800.4,567c-129.1,0-234,105-234,234s105,234,234,234s234-105,234-234S929.5,567,800.4,567z M800.4,979.6
		c-98.4,0-178.5-80.1-178.5-178.5S702,622.6,800.4,622.6s178.5,80.1,178.5,178.5S898.8,979.6,800.4,979.6z"/>
	<path d="M1037,485c-39.3,0-71.3,32-71.3,71.3s32,71.3,71.3,71.3c39.3,0,71.3-32,71.3-71.3S1076.3,485,1037,485z M1052.7,556.3
		c0,8.7-7.1,15.7-15.7,15.7c-8.7,0-15.7-7.1-15.7-15.7c0-8.6,7.1-15.7,15.7-15.7C1045.7,540.5,1052.7,547.6,1052.7,556.3z"/>
</g>
</svg>
